<svg xmlns="http://www.w3.org/2000/svg" xmlns:xlink="http://www.w3.org/1999/xlink" preserveAspectRatio="xMidYMid meet" version="1.0" viewBox="-3.7 -1.9 81.5 212.0" zoomAndPan="magnify" style="fill: rgb(0, 0, 0);" original_string_length="694" width="80.73906234723573px" height="208.48114690600775px"><g><g id="__id0_s7kcwf9oco"><path d="M23.1,5.8c1.6,64.2,6.4,128.4,14.3,192.1c0.9,7.6,13,7.7,12,0C41.5,134.2,36.7,70,35.1,5.8C34.9-1.9,22.9-1.9,23.1,5.8 L23.1,5.8z" style="fill: inherit;"/></g><g id="__id1_s7kcwf9oco"><path d="M1.8,167.3c12.6,12.6,24.7,25.7,36.2,39.3c3,3.5,8.9,1.4,10-2.6c5.2-19.7,13.8-38,25.4-54.8c4.4-6.4-6-12.4-10.4-6.1 c-12.1,17.5-21.1,37-26.6,57.6c3.3-0.9,6.7-1.8,10-2.6c-11.5-13.6-23.5-26.7-36.2-39.3C4.8,153.4-3.7,161.8,1.8,167.3L1.8,167.3z" style="fill: inherit;"/></g></g></svg>